<svg width="375" height="316" viewBox="0 0 375 316" fill="none" xmlns="http://www.w3.org/2000/svg">
<g clip-path="url(#clip0_8:3221)">
<path d="M-4.75531 61.6075L20.5582 36.294C38.1424 18.7098 38.1424 -9.79198 20.5582 -27.2796L6.06573 -41.772C2.974 -44.8637 2.974 -49.7912 6.06573 -52.8829L6.16234 -52.9795C9.35068 -56.1679 14.4714 -56.1679 17.6597 -52.9795C22.4905 -48.1487 56.113 -14.5262 63.7457 -6.89348C79.784 9.14484 105.774 9.14484 121.812 -6.89349C137.85 -22.9318 137.85 -48.9217 121.812 -64.96L-18.8613 -205.633L-14.6102 -236.551L36.5965 -185.344C58.9149 -163.026 95.146 -163.026 117.464 -185.344C139.783 -207.662 139.783 -243.894 117.464 -266.212L39.2051 -344.471C35.8236 -347.853 35.8236 -353.36 39.2051 -356.742C42.5867 -360.123 48.0938 -360.123 51.4754 -356.742L167.318 -240.995C179.975 -228.338 200.361 -228.338 213.018 -240.995C225.675 -253.652 225.675 -274.038 213.018 -286.695L132.73 -366.983C129.058 -370.654 129.058 -376.548 132.73 -380.123C136.401 -383.794 142.295 -383.794 145.87 -380.123L147.319 -378.673C173.985 -352.007 217.172 -352.007 243.839 -378.673L303.741 -438.576L-43.4019 -438.576" fill="#91CFF2"/>
<path d="M230.135 -90.2878C195.646 -93.4031 165.162 -67.9701 162.047 -33.4816C158.932 1.00694 184.365 31.4908 218.853 34.6061C253.342 37.7214 283.826 12.2884 286.941 -22.2001C290.056 -56.6886 264.623 -87.1725 230.135 -90.2878Z" fill="#FFCF54"/>
<path d="M36.4033 78.1289C36.4033 98.0318 52.5383 114.167 72.4412 114.167C92.3442 114.167 108.479 98.0318 108.479 78.1289C108.479 58.2259 92.3442 42.091 72.4412 42.091C52.5383 42.091 36.4033 58.2259 36.4033 78.1289ZM101.426 78.1289C101.426 94.1672 88.4795 107.114 72.4412 107.114C56.4995 107.114 43.4563 94.1672 43.4563 78.1289C43.4563 62.1872 56.4029 49.144 72.4412 49.144C88.4795 49.144 101.426 62.0906 101.426 78.1289Z" fill="#91CFF2"/>
<path d="M324.127 93.4909C324.127 89.0087 320.493 85.3751 316.011 85.3751C311.529 85.3751 307.895 89.0087 307.895 93.4909C307.895 97.9731 311.529 101.607 316.011 101.607C320.493 101.607 324.127 97.9731 324.127 93.4909Z" fill="#FFCF54"/>
<path d="M306.736 76.0999C306.736 71.6177 303.102 67.9841 298.62 67.9841C294.138 67.9841 290.504 71.6177 290.504 76.0999C290.504 80.5821 294.138 84.2157 298.62 84.2157C303.102 84.2157 306.736 80.5821 306.736 76.0999Z" fill="#FFCF54"/>
<path d="M210.147 305.619C198.964 294.437 180.834 294.437 169.652 305.619C158.469 316.802 158.469 334.932 169.652 346.114C180.834 357.297 198.964 357.297 210.147 346.114C221.329 334.932 221.329 316.802 210.147 305.619Z" fill="#FFCF54"/>
<path d="M323.559 318.841L244.333 239.615C226.556 221.838 226.556 193.046 244.333 175.365C262.11 157.588 290.902 157.588 308.583 175.365L344.621 211.403C352.447 219.229 365.007 219.229 372.833 211.403C380.659 203.577 380.659 191.017 372.833 183.191L365.007 175.365C348.969 159.327 348.969 133.337 365.007 117.299C381.045 101.26 407.035 101.26 423.073 117.299L455.247 149.472C458.725 152.95 464.329 152.95 467.807 149.472C471.285 145.994 471.285 140.39 467.807 136.912L389.354 58.4594C375.538 44.6433 375.538 22.1317 389.354 8.31551C403.17 -5.50062 425.682 -5.50062 439.498 8.31551L460.754 29.4745C463.749 32.4696 468.676 32.4696 471.768 29.4745C474.763 26.4794 474.763 21.552 471.768 18.4602L470.029 16.7211C432.928 -20.3796 432.928 -80.6682 470.029 -117.769L506.26 -154L506.26 433.331C506.163 433.331 330.612 311.788 323.559 318.841Z" fill="#B9E6FF"/>
<path d="M181.907 102.38C180.845 101.317 180.845 99.4812 181.907 98.4184L190.41 89.9162C191.472 88.8534 193.308 88.8534 194.371 89.9162C195.434 90.979 195.434 92.8147 194.371 93.8775L185.869 102.38C184.806 103.442 183.067 103.442 181.907 102.38Z" fill="#31346B"/>
<path d="M181.907 89.8214C182.97 88.7586 184.806 88.7586 185.869 89.8213L194.371 98.3236C195.434 99.3864 195.434 101.222 194.371 102.285C193.308 103.348 191.472 103.348 190.41 102.285L181.907 93.7826C180.845 92.7199 180.845 90.9808 181.907 89.8214Z" fill="#31346B"/>
<path d="M422.88 318.164L297.955 193.239" stroke="white" stroke-width="3" stroke-miterlimit="10" stroke-linecap="round"/>
<path d="M448.87 379.516L336.892 267.537" stroke="white" stroke-width="3" stroke-miterlimit="10" stroke-linecap="round"/>
<path d="M202.97 144.311C202.97 135.934 196.179 129.142 187.801 129.142C179.424 129.142 172.632 135.934 172.632 144.311C172.632 152.689 179.424 159.48 187.801 159.48C196.179 159.48 202.97 152.689 202.97 144.311Z" fill="#B9E6FF"/>
<path d="M492.433 13.2993L352.725 -126.505" stroke="#31346B" stroke-width="3" stroke-miterlimit="10" stroke-linecap="round"/>
<path d="M83.7454 87.404L112.054 115.809" stroke="#31346B" stroke-width="3" stroke-miterlimit="10" stroke-linecap="round"/>
</g>
<defs>
<clipPath id="clip0_8:3221">
<path d="M16 316C7.16345 316 -3.13124e-07 308.837 -6.99382e-07 300L-1.38128e-05 3.05176e-05L375 1.41258e-05L375 300C375 308.837 367.837 316 359 316L16 316Z" fill="white"/>
</clipPath>
</defs>
</svg>
