<svg width="55" height="43" viewBox="0 0 55 43" fill="none" xmlns="http://www.w3.org/2000/svg">
<path d="M54.1123 21.3933C54.1123 9.57971 44.6554 -4.13376e-07 32.9932 -9.23145e-07C21.3311 -1.43291e-06 11.8741 9.57971 11.8741 21.3933L-6.95997e-05 21.3933C-6.95997e-05 21.3933 7.50611 42.7865 32.9932 42.7865C44.6554 42.7865 54.1123 33.2068 54.1123 21.3933ZM32.9932 14.3481C36.8099 14.3481 39.9481 17.4841 39.9481 21.3933C39.9481 25.2595 36.8523 28.4384 32.9932 28.4384C29.1765 28.4384 26.0383 25.3025 26.0383 21.3933C26.0383 17.527 29.1765 14.3481 32.9932 14.3481Z" fill="#5E93E7"/>
</svg>
